<svg width="529" height="287" viewBox="0 0 529 287" fill="none" xmlns="http://www.w3.org/2000/svg">
<circle cx="335.667" cy="143.333" r="143.333" fill="#AAFFD8" fill-opacity="0.39"/>
<circle cx="192.333" cy="143.333" r="143.333" fill="#FA8072" fill-opacity="0.42"/>
<path d="M51.0254 126.499C51.0254 137.729 50.1302 148.797 48.3398 159.702C46.6309 170.607 44.5557 181.471 42.1143 192.295C41.7887 193.353 41.5853 194.248 41.5039 194.98C41.0156 197.34 40.4867 199.782 39.917 202.305C39.4287 204.746 38.6149 207.188 37.4756 209.629C36.4176 211.663 34.9528 213.454 33.0811 215C31.2907 216.465 29.2969 217.197 27.0996 217.197C26.2044 217.197 25.2686 216.994 24.292 216.587C23.3154 216.18 22.2575 215.651 21.1182 215C19.4906 213.861 18.2699 212.314 17.4561 210.361C16.6423 208.327 15.9505 206.252 15.3809 204.136L15.1367 203.281V203.403C13.7533 198.114 12.5732 192.824 11.5967 187.534C10.7015 182.244 9.80632 176.914 8.91113 171.543C8.42285 168.206 7.93457 164.91 7.44629 161.655C6.95801 158.319 6.38835 155.023 5.7373 151.768L4.02832 144.565C3.62142 142.938 3.17383 141.188 2.68555 139.316C2.27865 137.363 1.87174 135.532 1.46484 133.823C1.05794 132.114 0.732422 130.609 0.488281 129.307C0.244141 127.923 0.12207 126.987 0.12207 126.499C0.12207 124.953 0.610352 123.936 1.58691 123.447C2.64486 122.878 3.82487 122.593 5.12695 122.593C7.73112 122.593 10.0098 123.162 11.9629 124.302C13.9974 125.441 15.4622 127.313 16.3574 129.917C16.8457 131.3 17.2526 132.765 17.5781 134.312C17.985 135.858 18.3105 137.404 18.5547 138.95C19.9382 144.321 21.2402 150.018 22.4609 156.04C23.763 161.981 24.8617 167.718 25.7568 173.252L26.8555 179.478C26.9368 179.884 26.9775 180.21 26.9775 180.454C26.9775 180.698 26.9775 180.902 26.9775 181.064C27.0589 181.227 27.0996 181.431 27.0996 181.675C27.181 181.919 27.2624 182.285 27.3438 182.773C29.1341 174.147 30.6396 165.521 31.8604 156.895C33.0811 148.187 33.6914 139.438 33.6914 130.649C33.6914 128.859 33.5693 127.109 33.3252 125.4C33.1624 123.691 32.959 121.901 32.7148 120.029C32.4707 118.32 32.2266 116.571 31.9824 114.78C31.8197 112.909 31.7383 111.037 31.7383 109.165C31.7383 107.456 32.2673 106.276 33.3252 105.625C34.3831 104.974 35.6852 104.648 37.2314 104.648C39.1032 104.648 40.8122 104.771 42.3584 105.015C43.9046 105.259 45.2474 105.747 46.3867 106.479C47.526 107.131 48.4619 108.107 49.1943 109.409C49.9268 110.63 50.415 112.257 50.6592 114.292C50.8219 116.164 50.9033 118.198 50.9033 120.396C50.9847 122.511 51.0254 124.546 51.0254 126.499ZM75.9277 112.339C75.9277 113.722 75.6022 114.74 74.9512 115.391C74.3815 115.96 73.2829 116.245 71.6553 116.245C70.9229 116.245 69.7835 116.164 68.2373 116.001C66.6911 115.757 65.1042 115.431 63.4766 115.024C61.9303 114.618 60.5469 114.048 59.3262 113.315C58.1868 112.583 57.6172 111.688 57.6172 110.63C57.6172 110.304 57.7393 109.409 57.9834 107.944C58.2275 106.398 58.5124 104.771 58.8379 103.062C59.2448 101.353 59.5703 99.8063 59.8145 98.4229C60.14 97.0394 60.3841 96.2663 60.5469 96.1035V96.2256C60.9538 95.5745 61.4421 95.1676 62.0117 95.0049C62.5814 94.8421 63.151 94.7607 63.7207 94.7607C64.4531 94.7607 65.389 94.8828 66.5283 95.127C67.749 95.2897 68.929 95.5745 70.0684 95.9814C71.2891 96.307 72.3877 96.7546 73.3643 97.3242C74.3408 97.8939 74.9512 98.5042 75.1953 99.1553C75.4395 99.8063 75.5615 100.701 75.5615 101.841C75.6429 102.899 75.6429 103.875 75.5615 104.771C75.5615 105.096 75.5208 105.503 75.4395 105.991C75.4395 106.398 75.4395 106.724 75.4395 106.968C75.4395 107.375 75.4395 107.782 75.4395 108.188C75.5208 108.595 75.6022 109.002 75.6836 109.409C75.765 109.816 75.8057 110.264 75.8057 110.752C75.887 111.24 75.9277 111.769 75.9277 112.339ZM80.4443 209.629C80.4443 211.501 79.9967 212.843 79.1016 213.657C78.2878 214.39 76.945 214.756 75.0732 214.756C74.0967 214.756 72.998 214.634 71.7773 214.39C70.638 214.146 69.4987 213.82 68.3594 213.413C67.2201 212.925 66.1621 212.355 65.1855 211.704C64.209 211.053 63.4766 210.321 62.9883 209.507C62.6628 209.019 62.3779 207.513 62.1338 204.99C61.8896 202.467 61.6862 199.334 61.5234 195.591C61.4421 191.847 61.32 187.656 61.1572 183.018C61.0758 178.379 60.9945 173.7 60.9131 168.979C60.9131 164.259 60.9131 159.661 60.9131 155.186C60.9131 150.71 60.9131 146.803 60.9131 143.467V134.067C60.9131 133.254 60.9131 132.44 60.9131 131.626C60.9945 130.812 61.1572 130.12 61.4014 129.551C61.7269 128.9 62.1745 128.371 62.7441 127.964C63.3952 127.557 64.2904 127.354 65.4297 127.354C69.0104 127.354 71.6146 128.371 73.2422 130.405C74.9512 132.358 76.0091 135.003 76.416 138.34C76.8229 143.304 77.1077 148.268 77.2705 153.232C77.5146 158.115 77.7181 163.079 77.8809 168.125C78.0436 172.682 78.1657 177.199 78.2471 181.675C78.4098 186.069 78.6947 190.464 79.1016 194.858C79.1829 195.754 79.2643 196.608 79.3457 197.422C79.4271 198.236 79.5492 199.049 79.7119 199.863C79.8747 201.491 80.0374 203.118 80.2002 204.746C80.363 206.292 80.4443 207.92 80.4443 209.629ZM132.69 125.522C132.69 126.499 132.324 127.313 131.592 127.964C130.941 128.615 130.127 129.185 129.15 129.673C128.174 130.08 127.157 130.365 126.099 130.527C125.122 130.69 124.308 130.771 123.657 130.771C122.681 130.771 121.745 130.69 120.85 130.527C119.954 130.283 119.059 130.039 118.164 129.795C117.269 129.551 116.414 129.347 115.601 129.185C114.787 128.94 113.932 128.818 113.037 128.818C111.816 128.818 110.596 129.022 109.375 129.429C108.154 129.836 107.056 130.405 106.079 131.138C105.103 131.87 104.289 132.765 103.638 133.823C103.068 134.881 102.783 136.061 102.783 137.363C102.783 139.316 103.19 141.27 104.004 143.223C104.818 145.094 105.876 147.007 107.178 148.96C108.561 150.913 110.107 152.907 111.816 154.941C113.607 156.895 115.479 158.888 117.432 160.923C119.792 163.527 122.152 166.172 124.512 168.857C126.953 171.543 129.11 174.351 130.981 177.28C132.935 180.21 134.521 183.302 135.742 186.558C136.963 189.813 137.573 193.231 137.573 196.812C137.573 199.904 137.044 202.671 135.986 205.112C135.01 207.554 133.586 209.629 131.714 211.338C129.924 213.047 127.726 214.349 125.122 215.244C122.599 216.221 119.832 216.709 116.821 216.709C116.007 216.709 114.746 216.546 113.037 216.221C111.41 215.895 109.538 215.448 107.422 214.878C105.306 214.227 103.109 213.535 100.83 212.803C98.6328 212.07 96.5983 211.297 94.7266 210.483C92.9362 209.588 91.4307 208.734 90.21 207.92C89.0706 207.025 88.501 206.211 88.501 205.479C88.501 204.502 88.9486 203.525 89.8438 202.549C90.7389 201.491 91.7969 200.555 93.0176 199.741C94.2383 198.846 95.4997 198.114 96.8018 197.544C98.1852 196.974 99.3245 196.689 100.22 196.689C101.44 196.689 102.702 196.974 104.004 197.544C105.387 198.114 106.771 198.765 108.154 199.497C109.701 200.311 111.247 201.043 112.793 201.694C114.421 202.345 116.089 202.671 117.798 202.671C119.1 202.671 119.832 202.223 119.995 201.328C120.239 200.433 120.361 199.416 120.361 198.276C120.361 195.428 119.873 192.743 118.896 190.22C117.92 187.616 116.659 185.093 115.112 182.651C113.566 180.21 111.776 177.85 109.741 175.571C107.707 173.211 105.672 170.892 103.638 168.613C101.522 166.335 99.4466 164.056 97.4121 161.777C95.459 159.499 93.7093 157.179 92.1631 154.819C90.6169 152.378 89.3555 149.896 88.3789 147.373C87.4837 144.85 87.0361 142.165 87.0361 139.316C87.0361 135.817 87.8092 132.684 89.3555 129.917C90.9017 127.069 92.8955 124.627 95.3369 122.593C97.8597 120.558 100.667 119.012 103.76 117.954C106.934 116.815 110.107 116.245 113.281 116.245C114.339 116.245 115.967 116.489 118.164 116.978C120.361 117.384 122.518 117.995 124.634 118.809C126.75 119.622 128.621 120.599 130.249 121.738C131.877 122.878 132.69 124.139 132.69 125.522ZM195.068 134.434C195.068 135.247 194.987 136.102 194.824 136.997C194.661 137.892 194.499 138.706 194.336 139.438C194.173 140.334 194.01 141.188 193.848 142.002C193.685 142.734 193.604 143.467 193.604 144.199C193.604 151.768 193.726 159.377 193.97 167.026C194.295 174.595 195.109 182.204 196.411 189.854C196.818 192.783 197.306 195.632 197.876 198.398C198.446 201.165 199.097 203.973 199.829 206.821L200.073 207.554V207.31C200.317 207.879 200.521 208.49 200.684 209.141C200.928 209.71 201.05 210.321 201.05 210.972C201.05 211.867 200.806 212.599 200.317 213.169C199.91 213.739 199.382 214.186 198.73 214.512C198.079 214.837 197.347 215.041 196.533 215.122C195.801 215.203 195.109 215.244 194.458 215.244C191.772 215.244 189.616 214.959 187.988 214.39C186.442 213.739 185.181 212.884 184.204 211.826C183.228 210.687 182.495 209.344 182.007 207.798C181.6 206.252 181.234 204.543 180.908 202.671L180.542 200.474C180.216 199.334 180.013 198.114 179.932 196.812C179.85 196.16 179.769 195.876 179.688 195.957C179.688 195.957 179.647 195.632 179.565 194.98C178.426 197.015 177.083 199.212 175.537 201.572C174.072 203.851 172.363 206.007 170.41 208.042C168.538 209.995 166.504 211.663 164.307 213.047C162.109 214.349 159.749 215 157.227 215C153.727 215 151.001 213.942 149.048 211.826C147.176 209.71 145.793 207.147 144.897 204.136C144.002 201.043 143.473 197.869 143.311 194.614C143.148 191.278 143.066 188.389 143.066 185.947C143.066 176.67 143.351 167.474 143.921 158.359C144.572 149.245 145.264 140.09 145.996 130.894C145.996 130.649 145.996 130.324 145.996 129.917C146.077 129.51 146.118 129.185 146.118 128.94C146.2 127.801 146.281 126.743 146.362 125.767C146.444 124.79 146.647 123.854 146.973 122.959V123.081C147.298 121.779 147.746 120.843 148.315 120.273C148.966 119.704 149.943 119.419 151.245 119.419C152.466 119.419 153.687 119.663 154.907 120.151C156.128 120.558 157.227 121.169 158.203 121.982C159.18 122.715 159.953 123.61 160.522 124.668C161.174 125.726 161.499 126.906 161.499 128.208C161.499 128.859 161.499 129.632 161.499 130.527C161.499 131.423 161.458 132.196 161.377 132.847C161.377 133.416 161.336 134.149 161.255 135.044C161.255 135.858 161.255 136.549 161.255 137.119C160.604 144.932 160.116 152.703 159.79 160.435C159.465 168.084 159.302 175.856 159.302 183.75C159.302 185.947 159.302 188.145 159.302 190.342C159.383 192.539 159.627 194.736 160.034 196.934C162.72 193.516 165.039 189.162 166.992 183.872C168.945 178.501 170.573 172.845 171.875 166.904C173.258 160.882 174.357 154.941 175.171 149.082C176.066 143.141 176.717 137.892 177.124 133.335C177.124 133.091 177.124 132.806 177.124 132.48C177.205 132.155 177.246 131.87 177.246 131.626C177.327 130.731 177.409 129.876 177.49 129.062C177.572 128.249 177.856 127.476 178.345 126.743C178.345 126.011 178.385 125.238 178.467 124.424C178.548 123.61 178.752 122.878 179.077 122.227C179.403 121.494 179.85 120.924 180.42 120.518C181.071 120.111 181.966 119.907 183.105 119.907C186.361 119.907 188.924 120.924 190.796 122.959C192.668 124.912 193.685 127.435 193.848 130.527C194.255 131.178 194.539 131.829 194.702 132.48C194.946 133.05 195.068 133.701 195.068 134.434ZM260.986 213.413C260.986 215.041 260.579 216.139 259.766 216.709C258.952 217.36 257.812 217.686 256.348 217.686C252.523 217.686 249.756 216.668 248.047 214.634C246.419 212.599 245.199 209.914 244.385 206.577C244.141 205.438 243.896 204.299 243.652 203.159C243.408 201.938 243.205 200.758 243.042 199.619C242.879 198.561 242.716 197.829 242.554 197.422C242.391 197.015 242.228 196.242 242.065 195.103C241.089 197.463 239.868 199.945 238.403 202.549C237.02 205.072 235.392 207.432 233.521 209.629C231.649 211.745 229.533 213.494 227.173 214.878C224.894 216.261 222.371 216.953 219.604 216.953C216.675 216.953 214.233 216.261 212.28 214.878C210.327 213.413 208.781 211.623 207.642 209.507C206.584 207.31 205.811 204.909 205.322 202.305C204.915 199.701 204.712 197.218 204.712 194.858C204.712 189.325 205.241 183.343 206.299 176.914C207.438 170.404 208.984 163.934 210.938 157.505C212.891 150.994 215.169 144.769 217.773 138.828C220.378 132.806 223.226 127.557 226.318 123.081V123.203L227.051 122.104C227.946 120.884 228.963 119.582 230.103 118.198C231.323 116.733 232.747 116.001 234.375 116.001C235.921 116.001 237.264 116.693 238.403 118.076C239.543 119.378 240.356 120.762 240.845 122.227C242.961 122.633 244.67 123.162 245.972 123.813C247.274 124.383 248.291 125.116 249.023 126.011C249.756 126.906 250.244 127.964 250.488 129.185C250.732 130.324 250.854 131.585 250.854 132.969C250.854 133.538 250.854 134.149 250.854 134.8C250.854 135.451 250.814 136.102 250.732 136.753C250.651 137.404 250.61 138.177 250.61 139.072C250.61 139.967 250.61 140.781 250.61 141.514C250.61 142.327 250.732 143.385 250.977 144.688C251.302 145.99 251.628 147.332 251.953 148.716L252.808 153.232C253.215 155.592 253.54 158.278 253.784 161.289C254.11 164.3 254.476 167.311 254.883 170.322C255.208 173.415 255.534 176.426 255.859 179.355C256.185 182.204 256.51 184.849 256.836 187.29L259.766 205.356L260.132 207.432C260.295 208.49 260.457 209.466 260.62 210.361C260.864 211.257 260.986 212.274 260.986 213.413ZM233.032 143.223C233.032 143.06 232.992 142.816 232.91 142.49C232.829 142.083 232.747 141.676 232.666 141.27C230.794 145.257 229.126 149.611 227.661 154.331C226.278 158.97 225.098 163.73 224.121 168.613C223.226 173.415 222.534 178.257 222.046 183.14C221.639 187.941 221.436 192.498 221.436 196.812C221.436 197.218 221.436 197.585 221.436 197.91C221.436 198.236 221.476 198.561 221.558 198.887V199.009C223.511 195.998 225.179 192.051 226.562 187.168C228.027 182.204 229.248 177.036 230.225 171.665C231.201 166.213 231.893 160.964 232.3 155.918C232.788 150.791 233.032 146.559 233.032 143.223ZM299.927 218.54C299.927 219.679 299.642 220.615 299.072 221.348C298.503 222.08 297.77 222.65 296.875 223.057C296.061 223.545 295.125 223.87 294.067 224.033C293.091 224.277 292.196 224.399 291.382 224.399C288.534 224.399 286.051 223.586 283.936 221.958C281.82 220.33 279.989 218.215 278.442 215.61C276.896 213.088 275.635 210.199 274.658 206.943C273.682 203.607 272.868 200.311 272.217 197.056C271.566 193.719 271.077 190.545 270.752 187.534C270.426 184.442 270.182 181.797 270.02 179.6C269.287 172.031 268.758 164.341 268.433 156.528C268.188 148.716 268.066 140.985 268.066 133.335C268.066 112.42 268.799 91.709 270.264 71.2012C270.264 70.8757 270.264 70.5094 270.264 70.1025C270.345 69.6956 270.386 69.2887 270.386 68.8818C270.467 67.1729 270.549 65.2197 270.63 63.0225C270.711 60.7438 270.833 58.5059 270.996 56.3086C271.159 54.1113 271.322 52.1175 271.484 50.3271C271.729 48.4554 272.013 47.1533 272.339 46.4209V46.543C272.664 45.4036 273.112 44.5492 273.682 43.9795C274.251 43.4098 275.228 43.125 276.611 43.125C279.541 43.125 282.023 44.1016 284.058 46.0547C286.092 48.0078 287.109 50.4492 287.109 53.3789C287.109 54.0299 287.069 54.681 286.987 55.332C286.987 55.9017 286.947 56.4714 286.865 57.041C286.784 57.6107 286.702 58.1803 286.621 58.75C286.621 59.2383 286.621 59.6859 286.621 60.0928C286.377 63.2666 286.174 66.4404 286.011 69.6143C285.929 72.7067 285.807 75.8398 285.645 79.0137C285.238 86.0124 284.912 93.0111 284.668 100.01C284.505 106.927 284.424 113.926 284.424 121.006C284.424 124.017 284.465 127.964 284.546 132.847C284.627 137.729 284.79 143.06 285.034 148.838C285.278 154.535 285.604 160.435 286.011 166.538C286.499 172.642 287.109 178.46 287.842 183.994C288.574 189.528 289.429 194.533 290.405 199.009C291.463 203.485 292.684 206.943 294.067 209.385C294.8 209.71 295.492 210.239 296.143 210.972C296.875 211.623 297.485 212.396 297.974 213.291C298.543 214.105 298.991 214.959 299.316 215.854C299.723 216.831 299.927 217.726 299.927 218.54ZM434.204 178.867C434.204 180.088 434.001 181.309 433.594 182.529C433.268 183.669 432.902 184.808 432.495 185.947C430.705 190.586 428.507 194.899 425.903 198.887C423.299 202.793 420.288 206.17 416.87 209.019C413.452 211.867 409.587 214.105 405.273 215.732C400.96 217.36 396.2 218.174 390.991 218.174C384.074 218.174 378.133 216.709 373.169 213.779C368.205 210.85 363.973 207.065 360.474 202.427C356.974 197.707 354.085 192.458 351.807 186.68C349.609 180.902 347.86 175.124 346.558 169.346C344.604 160.964 343.099 152.581 342.041 144.199C340.983 135.736 340.454 127.272 340.454 118.809C340.454 113.844 340.658 108.717 341.064 103.428C341.553 98.138 342.367 92.9297 343.506 87.8027C344.645 82.5944 346.191 77.5895 348.145 72.7881C350.098 67.9053 352.539 63.4294 355.469 59.3604C358.398 55.21 361.857 51.5479 365.845 48.374C369.914 45.2002 374.634 42.7181 380.005 40.9277C381.958 40.1953 383.993 39.707 386.108 39.4629C388.224 39.1374 390.34 38.9746 392.456 38.9746C396.688 38.9746 400.716 39.6663 404.541 41.0498C408.366 42.4333 411.702 44.3864 414.551 46.9092C417.48 49.432 419.759 52.4837 421.387 56.0645C423.096 59.6452 423.95 63.6328 423.95 68.0273C423.95 69.4922 423.625 70.5908 422.974 71.3232C422.323 72.0557 421.183 72.4219 419.556 72.4219C416.545 72.4219 414.185 71.9336 412.476 70.957C410.848 69.9805 409.505 68.7598 408.447 67.2949C407.389 65.8301 406.494 64.2432 405.762 62.5342C405.111 60.8252 404.297 59.2383 403.32 57.7734C402.344 56.3086 401.042 55.0879 399.414 54.1113C397.786 53.1348 395.549 52.6465 392.7 52.6465C389.852 52.6465 387.166 53.2161 384.644 54.3555C382.202 55.4134 379.924 56.8376 377.808 58.6279C375.773 60.4183 373.901 62.4528 372.192 64.7314C370.565 66.9287 369.1 69.1667 367.798 71.4453C364.38 77.793 361.979 84.5882 360.596 91.8311C359.212 98.9925 358.521 106.195 358.521 113.438C358.521 115.879 358.602 119.053 358.765 122.959C359.009 126.784 359.334 131.016 359.741 135.654C360.229 140.293 360.881 145.216 361.694 150.425C362.508 155.552 363.485 160.597 364.624 165.562C365.845 170.526 367.269 175.286 368.896 179.844C370.605 184.401 372.518 188.389 374.634 191.807C376.831 195.225 379.272 197.951 381.958 199.985C384.725 202.02 387.817 203.037 391.235 203.037C394.735 203.037 397.827 202.142 400.513 200.352C403.198 198.48 405.477 196.16 407.349 193.394C409.302 190.545 410.889 187.493 412.109 184.238C413.411 180.902 414.429 177.809 415.161 174.961C415.405 174.147 415.609 173.415 415.771 172.764C416.016 172.113 416.3 171.543 416.626 171.055C417.033 170.566 417.521 170.2 418.091 169.956C418.66 169.712 419.474 169.59 420.532 169.59C421.672 169.59 423.014 169.834 424.561 170.322C426.188 170.729 427.694 171.34 429.077 172.153C430.542 172.967 431.763 173.944 432.739 175.083C433.716 176.222 434.204 177.484 434.204 178.867ZM516.479 176.426C516.479 182.448 515.503 188.145 513.55 193.516C511.597 198.887 508.789 203.607 505.127 207.676C501.546 211.663 497.192 214.837 492.065 217.197C486.938 219.639 481.242 220.859 474.976 220.859C469.442 220.859 464.315 219.964 459.595 218.174C454.956 216.465 450.928 214.023 447.51 210.85C444.092 207.676 441.406 203.81 439.453 199.253C437.581 194.696 436.646 189.609 436.646 183.994C436.646 182.855 436.686 181.431 436.768 179.722C436.849 178.013 437.093 176.385 437.5 174.839C437.988 173.211 438.639 171.868 439.453 170.811C440.348 169.671 441.61 169.102 443.237 169.102C444.539 169.102 445.964 169.386 447.51 169.956C449.137 170.444 450.643 171.136 452.026 172.031C453.41 172.926 454.549 174.025 455.444 175.327C456.421 176.548 456.909 177.891 456.909 179.355V186.436C456.909 192.051 458.415 196.649 461.426 200.229C464.518 203.729 468.953 205.479 474.731 205.479C478.8 205.479 482.3 204.543 485.229 202.671C488.159 200.799 490.519 198.398 492.31 195.469C494.181 192.539 495.524 189.284 496.338 185.703C497.233 182.041 497.681 178.46 497.681 174.961C497.681 168.125 496.257 161.493 493.408 155.063C490.641 148.634 487.142 142.368 482.91 136.265C478.678 130.08 474.08 124.017 469.116 118.076C464.152 112.135 459.554 106.235 455.322 100.376C451.09 94.5166 447.55 88.6572 444.702 82.7979C441.935 76.9385 440.552 70.957 440.552 64.8535C440.552 59.8893 441.528 55.6169 443.481 52.0361C445.516 48.374 448.161 45.4036 451.416 43.125C454.753 40.765 458.496 39.056 462.646 37.998C466.878 36.8587 471.232 36.2891 475.708 36.2891C481.16 36.2891 486.043 37.0622 490.356 38.6084C494.67 40.1546 498.332 42.3926 501.343 45.3223C504.354 48.252 506.632 51.8734 508.179 56.1865C509.806 60.4183 510.62 65.2604 510.62 70.7129C510.62 71.5267 510.579 72.5439 510.498 73.7646C510.417 74.9854 510.213 76.2061 509.888 77.4268C509.562 78.5661 509.074 79.5833 508.423 80.4785C507.772 81.2923 506.877 81.6992 505.737 81.6992C504.11 81.6992 502.482 81.2923 500.854 80.4785C499.471 79.7461 498.332 79.0544 497.437 78.4033C496.623 77.6709 495.972 76.8978 495.483 76.084C494.995 75.1888 494.629 74.2122 494.385 73.1543C494.141 72.0964 493.937 70.7943 493.774 69.248C493.368 66.3184 492.839 63.6735 492.188 61.3135C491.536 58.9535 490.56 56.9596 489.258 55.332C487.956 53.7044 486.247 52.443 484.131 51.5479C482.015 50.6527 479.289 50.2051 475.952 50.2051C473.592 50.2051 471.313 50.4492 469.116 50.9375C467 51.4258 465.129 52.2396 463.501 53.3789C461.955 54.5182 460.693 56.0238 459.717 57.8955C458.822 59.6859 458.374 61.9238 458.374 64.6094C458.374 68.3529 459.188 72.1777 460.815 76.084C462.524 79.9902 464.722 83.9779 467.407 88.0469C470.174 92.1159 473.267 96.307 476.685 100.62C480.184 104.852 483.765 109.246 487.427 113.804C491.089 118.361 494.629 123.081 498.047 127.964C501.546 132.765 504.639 137.77 507.324 142.979C510.091 148.187 512.288 153.599 513.916 159.214C515.625 164.748 516.479 170.485 516.479 176.426Z" fill="black" fill-opacity="0.75"/>
</svg>

